<svg height="512pt" viewBox="0 0 512 512" width="512pt" xmlns="http://www.w3.org/2000/svg"><path d="m60.035156 421.953125h120.90625v30h-120.90625zm0 0"/><path d="m406.511719 361.902344v-60.046875h-135.511719v-30.046875h122.820312c42.742188 0 77.511719-34.773438 77.511719-77.511719 0-37.875-27.507812-69.644531-63.589843-76.242187-7.851563-40.894532-43.628907-71.300782-86.550782-71.300782-9.433594 0-18.828125 1.53125-27.746094 4.480469-20.046874-31.523437-55.207031-51.234375-93.140624-51.234375-60.804688 0-110.273438 49.46875-110.273438 110.273438 0 3.855468.203125 7.710937.601562 11.542968-29.667968 11.1875-49.964843 39.65625-49.964843 72.480469 0 42.738281 34.769531 77.511719 77.511719 77.511719h122.820312v30.046875h-135.511719v60.046875h-105.488281v150.097656h240.976562v-150.097656h-105.488281v-30.046875h241.023438v30.046875h-105.488281v150.097656h240.976562v-150.097656zm-335.84375-167.605469c0-23.261719 16.621093-42.953125 39.519531-46.828125l15.851562-2.679688-3.769531-15.625c-1.484375-6.164062-2.238281-12.519531-2.238281-18.890624 0-44.265626 36.011719-80.273438 80.273438-80.273438 31.183593 0 59.800781 18.300781 72.898437 46.625l6.664063 14.410156 14.007812-7.472656c8.472656-4.515625 17.660156-6.808594 27.316406-6.808594 31.265625 0 56.785156 24.457032 58.097656 55.671875l.601563 14.269531 14.28125.101563c26.003906.1875 47.160156 21.496094 47.160156 47.5 0 26.199219-21.3125 47.511719-47.511719 47.511719h-275.640624c-26.199219 0-47.511719-21.316406-47.511719-47.511719zm140.308593 287.703125h-180.976562v-90.097656h180.976562zm271.023438 0h-180.976562v-90.097656h180.976562zm0 0"/><path d="m331.058594 421.953125h120.90625v30h-120.90625zm0 0"/></svg>